<svg xmlns="http://www.w3.org/2000/svg" version="1.1" xmlns:xlink="http://www.w3.org/1999/xlink" xmlns:svgjs="http://svgjs.dev/svgjs" width="1000" height="750" viewBox="0 0 1000 750"><rect width="1000" height="750" fill="#1b4571"></rect><g transform="matrix(0.834,0,0,0.834,82.49454545454546,115.4193570850203)"><svg viewBox="0 0 396 247" data-background-color="#1b4571" preserveAspectRatio="xMidYMid meet" height="623" width="1000" xmlns="http://www.w3.org/2000/svg" xmlns:xlink="http://www.w3.org/1999/xlink"><g id="tight-bounds" transform="matrix(1,0,0,1,0.2400000000000091,-0.09999999999999432)"><svg viewBox="0 0 395.52 247.2" height="247.2" width="395.52"><g><svg></svg></g><g><svg viewBox="0 0 395.52 247.2" height="247.2" width="395.52"><mask id="d357ca2a-b084-4492-a69c-35f74ed2dd25"><rect width="395.52" height="247.2" fill="white"></rect><g transform="matrix(1,0,0,1,0,49.069956655793376)" id="clone"><svg viewBox="0 0 395.52 149.06008668841324" height="149.06008668841324" width="395.52"><g><svg viewBox="0 0 395.52 149.06008668841324" height="149.06008668841324" width="395.52"><g><svg viewBox="0 0 395.52 149.06008668841324" height="149.06008668841324" width="395.52"><g><svg viewBox="0 0 395.52 149.06008668841324" height="149.06008668841324" width="395.52"><g id="SvgjsG1226"><svg viewBox="0 0 395.52 149.06008668841324" height="149.06008668841324" width="395.52" id="SvgjsSvg1225"><g><svg viewBox="0 0 395.52 149.06008668841324" height="149.06008668841324" width="395.52"><g transform="matrix(1,0,0,1,0,0)"><svg width="395.52" viewBox="-2 -38.689998626708984 110.2699966430664 42.18000030517578" height="149.06008668841324" data-palette-color="#ffffff"><path d="M18.26-29.39L18.26 0 10.69 0 10.69-29.39 1-29.39 1-35.69 27.95-35.69 27.95-29.39 18.26-29.39ZM38.79-13.7L38.79-13.7Q38.79-9.64 40.12-7.57 41.45-5.49 44.46-5.49L44.46-5.49Q47.43-5.49 48.74-7.56 50.05-9.62 50.05-13.7L50.05-13.7Q50.05-17.75 48.73-19.78 47.41-21.8 44.41-21.8L44.41-21.8Q41.43-21.8 40.11-19.79 38.79-17.77 38.79-13.7ZM57.66-13.7L57.66-13.7Q57.66-7.03 54.15-3.27 50.63 0.49 44.36 0.49L44.36 0.49Q40.43 0.49 37.42-1.23 34.42-2.95 32.81-6.18 31.2-9.4 31.2-13.7L31.2-13.7Q31.2-20.39 34.69-24.1 38.18-27.81 44.5-27.81L44.5-27.81Q48.44-27.81 51.44-26.1 54.44-24.39 56.05-21.19 57.66-17.99 57.66-13.7ZM88.25-13.7L88.25 0 80.81 0 80.81-15.94Q80.81-18.9 79.82-20.37 78.83-21.85 76.7-21.85L76.7-21.85Q73.85-21.85 72.55-19.75 71.26-17.65 71.26-12.84L71.26-12.84 71.26 0 63.81 0 63.81-27.29 69.5-27.29 70.5-23.8 70.92-23.8Q72.02-25.68 74.09-26.75 76.17-27.81 78.85-27.81L78.85-27.81Q84.98-27.81 87.15-23.8L87.15-23.8 87.81-23.8Q88.91-25.71 91.05-26.76 93.18-27.81 95.87-27.81L95.87-27.81Q100.51-27.81 102.89-25.43 105.27-23.05 105.27-17.8L105.27-17.8 105.27 0 97.8 0 97.8-15.94Q97.8-18.9 96.81-20.37 95.82-21.85 93.7-21.85L93.7-21.85Q90.96-21.85 89.61-19.9 88.25-17.94 88.25-13.7L88.25-13.7Z" opacity="1" transform="matrix(1,0,0,1,0,0)" fill="black" class="wordmark-text-0" id="SvgjsPath1224" stroke-width="5" stroke="black" stroke-linejoin="round"></path></svg></g></svg></g></svg></g></svg></g></svg></g></svg></g></svg></g></mask><g mask="url(#d357ca2a-b084-4492-a69c-35f74ed2dd25)"><g><path xmlns="http://www.w3.org/2000/svg" d="M223.974 43.643v203.545h-52.428v-203.545h-67.109v-43.631h186.646v43.631z" fill="#ffffff" fill-rule="nonzero" stroke="none" stroke-width="1" stroke-linecap="butt" stroke-linejoin="miter" stroke-miterlimit="10" stroke-dasharray="" stroke-dashoffset="0" font-family="none" font-weight="none" font-size="none" text-anchor="none" style="mix-blend-mode: normal" data-fill-palette-color="tertiary"></path></g></g><g transform="matrix(1,0,0,1,0,49.069956655793376)"><svg viewBox="0 0 395.52 149.06008668841324" height="149.06008668841324" width="395.52"><g><svg viewBox="0 0 395.52 149.06008668841324" height="149.06008668841324" width="395.52"><g><svg viewBox="0 0 395.52 149.06008668841324" height="149.06008668841324" width="395.52"><g><svg viewBox="0 0 395.52 149.06008668841324" height="149.06008668841324" width="395.52"><g id="textblocktransform"><svg viewBox="0 0 395.52 149.06008668841324" height="149.06008668841324" width="395.52" id="textblock"><g><svg viewBox="0 0 395.52 149.06008668841324" height="149.06008668841324" width="395.52"><g transform="matrix(1,0,0,1,0,0)"><svg width="395.52" viewBox="-2 -38.689998626708984 110.2699966430664 42.18000030517578" height="149.06008668841324" data-palette-color="#ffffff"><path d="M18.26-29.39L18.26 0 10.69 0 10.69-29.39 1-29.39 1-35.69 27.95-35.69 27.95-29.39 18.26-29.39ZM38.79-13.7L38.79-13.7Q38.79-9.64 40.12-7.57 41.45-5.49 44.46-5.49L44.46-5.49Q47.43-5.49 48.74-7.56 50.05-9.62 50.05-13.7L50.05-13.7Q50.05-17.75 48.73-19.78 47.41-21.8 44.41-21.8L44.41-21.8Q41.43-21.8 40.11-19.79 38.79-17.77 38.79-13.7ZM57.66-13.7L57.66-13.7Q57.66-7.03 54.15-3.27 50.63 0.49 44.36 0.49L44.36 0.49Q40.43 0.49 37.42-1.23 34.42-2.95 32.81-6.18 31.2-9.4 31.2-13.7L31.2-13.7Q31.2-20.39 34.69-24.1 38.18-27.81 44.5-27.81L44.5-27.81Q48.44-27.81 51.44-26.1 54.44-24.39 56.05-21.19 57.66-17.99 57.66-13.7ZM88.25-13.7L88.25 0 80.81 0 80.81-15.94Q80.81-18.9 79.82-20.37 78.83-21.85 76.7-21.85L76.7-21.85Q73.85-21.85 72.55-19.75 71.26-17.65 71.26-12.84L71.26-12.84 71.26 0 63.81 0 63.81-27.29 69.5-27.29 70.5-23.8 70.92-23.8Q72.02-25.68 74.09-26.75 76.17-27.81 78.85-27.81L78.85-27.81Q84.98-27.81 87.15-23.8L87.15-23.8 87.81-23.8Q88.91-25.71 91.05-26.76 93.18-27.81 95.87-27.81L95.87-27.81Q100.51-27.81 102.89-25.43 105.27-23.05 105.27-17.8L105.27-17.8 105.27 0 97.8 0 97.8-15.94Q97.8-18.9 96.81-20.37 95.82-21.85 93.7-21.85L93.7-21.85Q90.96-21.85 89.61-19.9 88.25-17.94 88.25-13.7L88.25-13.7Z" opacity="1" transform="matrix(1,0,0,1,0,0)" fill="#ffffff" class="wordmark-text-0" data-fill-palette-color="primary" id="text-0"></path></svg></g></svg></g></svg></g></svg></g></svg></g></svg></g></svg></g></svg></g><defs></defs></svg><rect width="395.52" height="247.2" fill="none" stroke="none" visibility="hidden"></rect></g></svg></g></svg>